<?xml version="1.0" encoding="utf-8"?>
<!-- Generator: Adobe Illustrator 22.1.0, SVG Export Plug-In . SVG Version: 6.00 Build 0)  -->
<svg version="1.1" id="图层_1" xmlns="http://www.w3.org/2000/svg" xmlns:xlink="http://www.w3.org/1999/xlink" x="0px" y="0px"
	 viewBox="0 0 552 222" style="enable-background:new 0 0 552 222;" xml:space="preserve">
<style type="text/css">
	.st0{fill:#FFFFFF;}
</style>
<path class="st0" d="M199.4,129.5c-0.4,0-0.9,0-1.5-0.1c-6.4-0.7-11-6.5-10.3-12.9l7-57.9c0.4-3.7-1.8-7.3-5.2-8.5l-47.2-16.8
	c-6.1-2.2-9.2-8.8-7.1-14.9c2.2-6.1,8.8-9.2,14.9-7.1L197.2,28c14,4.9,22.5,18.6,20.7,33.3l-7,57.9
	C210.3,125,205.2,129.5,199.4,129.5z"/>
<path class="st0" d="M108.9,222.2c-5.2,0-10.4-1.3-15.3-4l-61-33.9c-8.8-4.9-14.7-13.7-15.9-23.7L4.3,60c-1.8-14.7,7-28.7,21-33.6
	l75.5-25.7c6.1-2.1,12.8,1.2,14.9,7.3c2.1,6.1-1.2,12.8-7.3,14.9L32.9,48.5c-3.6,1.2-5.8,4.8-5.4,8.6l12.4,100.6
	c0.3,2.5,1.8,4.8,4,6.1l61,33.9c2.4,1.3,5.4,1.3,7.7,0l66.1-36.2c2.2-1.2,3.9-3.6,4.2-6.1c0.7-6.4,6.5-11,12.9-10.3
	c6.4,0.7,11,6.5,10.3,12.9c-1.2,10-7.3,18.9-16.1,23.8L124,218.2C119.4,220.9,114.2,222.2,108.9,222.2z"/>
<path class="st0" d="M161.2,131.4l-37.8-68.3l-0.1-0.1c-2.7-4.6-7.7-7.6-13.1-7.6S99.7,58.4,97,63l-37.8,68.5
	c-2.8,5.2-1,11.6,4.2,14.4c5.2,2.8,11.6,1,14.4-4.2l7.3-13.2h50l7.3,13.2c1.9,3.6,5.5,5.5,9.4,5.5c1.8,0,3.6-0.4,5.1-1.3
	C162.1,143,164,136.5,161.2,131.4z M96.9,107.2l13.2-24l13.2,24H96.9z"/>
<path class="st0" d="M256.6,113.1c17.5-47.7,32.8-79.4,47.5-97.3c6.8,1.3,21.5,9.8,23.8,13.4c-22.1,26.2-38.1,54.9-52.2,93.9
	c-11.9,33.2-18.3,60.9-18.3,78.8c0,4.9,0,5.1,0.2,6.2c-3.8-0.4-7-2.1-7.9-4c-0.6-1.5-3.8-4.9-5.8-6.2c-2.6-1.7-4.5-9.8-4.5-18.9
	C239.6,166.5,245.7,142.9,256.6,113.1z"/>
<path class="st0" d="M378.4,113.9c-11.5,23.8-19.4,49-19.4,63.5c0,7.9,1.7,13.4,5.5,15.5c-3.4,2.1-9.6,3.8-13.8,3.8
	c-7.7,0-11.5-5.1-11.5-15.8c0-7.9,2.8-19.4,8.1-33.2c-11.5,26-30.2,47.3-43.4,49.4c-10.4-0.4-17.7-11.1-17.7-25.8
	c0-31.7,30.7-75.2,53.7-76.4c5.7,1.5,15.3,11.5,16,16.8c-22.8,3.6-50.7,41.3-50.7,67.5c0,3,1.1,4.5,3,5.1
	c8.3-1.7,18.5-13.6,33.9-39.2c6-10,14.5-26,20.7-38.8C368.6,106.5,378.6,111.2,378.4,113.9z"/>
<path class="st0" d="M395.8,137.8c1.3-5.5,7.5-27.7,20.2-34.1c4.7,1.1,14.3,5.7,19.8,14.1c-13,14.5-16.8,29.6-24.1,48.3
	c-3,7.9-6.2,17-6.4,23.2c0,5.1,0,7-1.3,7c-2.1,0-15.5-5.5-15.5-18.1C388.6,173.3,390.3,163.3,395.8,137.8z M429.9,82
	c-1.5-1.5-2.6-4.7-2.6-7c0-4.9,3-18.7,6.6-27.9c6.6,0,21.5,8.5,25.8,14.9c-6.4,6-21.9,24.9-24.1,29.6c-3.4-0.6-6.4-3.4-6.4-5.7
	C429.3,85,429.5,83.7,429.9,82z"/>
<path class="st0" d="M490.8,109.7c-6.4,15.5-28.7,45.8-30.4,58.8c8.9-9.6,23.4-27.5,28.3-32.6c10.9-11.5,30.9-32.6,44.7-32.6
	c7.2,0,12.3,6.2,15.1,11.5c0,0.6-2.3,0.9-6.2,5.3c-7.7,10-22.1,38.1-22.1,55.6c0,7,1.9,8.3,5.3,8.3c3,0,7-2.1,8.9-2.1
	c1.1,0.6,1.9,3,1.9,4.3c-4.3,3.8-13.4,8.7-18.3,8.7c-16.4,0-20.2-10-20.2-22.6c0-7,1.9-15.8,11.7-38.3c-0.6,0-8.9,4-17.2,12.1
	c-13.2,12.8-23.2,24.5-34.3,39.8c-6.2,8.7-10.9,15.3-14.3,17.2c-6-3.4-8.5-10.2-9.8-16.6c0-10.6,6.4-34.5,16-56.4
	c10.9-24.9,20.9-39.8,23.2-40.9C480.6,91.6,487.8,100.3,490.8,109.7z"/>
<image style="overflow:visible;enable-background:new    ;" width="5842" height="3854" id="图层_1_2_" xlink:href="C3959981.png"  transform="matrix(5.618992e-02 0 0 5.618992e-02 112.6906 2.722)">
</image>
</svg>
